# xmcd CD database file
#
# Track frame offsets:
#	187
#	14157
#	30207
#	44229
#	68507
#	88149
#	97477
#	113274
#	125652
#	141544
#
# Disc length: 2476 seconds
#
# Revision: 2
# Processed by: cddbd v1.5.1PL2 Copyright (c) Steve Scherf et al.
# Submitted via: CDex 1.51
#
DISCID=9109aa0a
DTITLE=Outlaws - Outlaws
DYEAR=1975
DGENRE=Rock
TTITLE0=There Goes Another Love Song
TTITLE1=Song For You
TTITLE2=Song In The Breeze
TTITLE3=It Follows From Your Heart
TTITLE4=Cry No More
TTITLE5=Waterhole
TTITLE6=Stay With Me
TTITLE7=Keep Prayin'
TTITLE8=Knoxville Girl
TTITLE9=Green Grass and High Tides
EXTD=YEAR: 1975
EXTT0=
EXTT1=
EXTT2=
EXTT3=
EXTT4=
EXTT5=
EXTT6=
EXTT7=
EXTT8=
EXTT9=
PLAYORDER=
